<mxfile host="app.diagrams.net" modified="2020-12-02T18:30:19.000Z" agent="5.0 (Windows NT 10.0; Win64; x64) AppleWebKit/537.36 (KHTML, like Gecko) Chrome/87.0.4280.66 Safari/537.36" etag="7gRxBpF42DrKipyKeg8E" version="13.10.6" type="github">
  <diagram id="ckRrnIVcHQBUZB9jFONz" name="Page-1">
    <mxGraphModel dx="1718" dy="482" grid="1" gridSize="10" guides="1" tooltips="1" connect="1" arrows="1" fold="1" page="1" pageScale="1" pageWidth="850" pageHeight="1100" math="0" shadow="0">
      <root>
        <mxCell id="0" />
        <mxCell id="1" parent="0" />
        <mxCell id="QkRai7MnK0GTXK78Vudh-1" value="" style="outlineConnect=0;fontColor=#232F3E;gradientColor=none;fillColor=#5A30B5;strokeColor=none;dashed=0;verticalLabelPosition=bottom;verticalAlign=top;align=center;html=1;fontSize=12;fontStyle=0;aspect=fixed;pointerEvents=1;shape=mxgraph.aws4.router;" vertex="1" parent="1">
          <mxGeometry x="130" y="145" width="78" height="78" as="geometry" />
        </mxCell>
        <mxCell id="QkRai7MnK0GTXK78Vudh-2" value="" style="outlineConnect=0;fontColor=#232F3E;gradientColor=none;fillColor=#5A30B5;strokeColor=none;dashed=0;verticalLabelPosition=bottom;verticalAlign=top;align=center;html=1;fontSize=12;fontStyle=0;aspect=fixed;pointerEvents=1;shape=mxgraph.aws4.router;" vertex="1" parent="1">
          <mxGeometry x="604" y="141" width="78" height="78" as="geometry" />
        </mxCell>
        <mxCell id="QkRai7MnK0GTXK78Vudh-5" style="edgeStyle=none;rounded=0;orthogonalLoop=1;jettySize=auto;html=1;exitX=0.16;exitY=0.55;exitDx=0;exitDy=0;exitPerimeter=0;endArrow=none;endFill=0;" edge="1" parent="1" source="QkRai7MnK0GTXK78Vudh-3" target="QkRai7MnK0GTXK78Vudh-1">
          <mxGeometry relative="1" as="geometry" />
        </mxCell>
        <mxCell id="QkRai7MnK0GTXK78Vudh-6" style="edgeStyle=none;rounded=0;orthogonalLoop=1;jettySize=auto;html=1;exitX=0.875;exitY=0.5;exitDx=0;exitDy=0;exitPerimeter=0;endArrow=none;endFill=0;" edge="1" parent="1" source="QkRai7MnK0GTXK78Vudh-3" target="QkRai7MnK0GTXK78Vudh-2">
          <mxGeometry relative="1" as="geometry" />
        </mxCell>
        <mxCell id="QkRai7MnK0GTXK78Vudh-3" value="" style="ellipse;shape=cloud;whiteSpace=wrap;html=1;" vertex="1" parent="1">
          <mxGeometry x="350" y="140" width="120" height="80" as="geometry" />
        </mxCell>
        <mxCell id="QkRai7MnK0GTXK78Vudh-7" value="Cloud" style="text;html=1;strokeColor=none;fillColor=none;align=center;verticalAlign=middle;whiteSpace=wrap;rounded=0;" vertex="1" parent="1">
          <mxGeometry x="390" y="170" width="40" height="20" as="geometry" />
        </mxCell>
        <mxCell id="QkRai7MnK0GTXK78Vudh-8" value="Bangladesh bank" style="text;html=1;strokeColor=none;fillColor=none;align=center;verticalAlign=middle;whiteSpace=wrap;rounded=0;" vertex="1" parent="1">
          <mxGeometry x="583" y="120" width="120" height="10" as="geometry" />
        </mxCell>
        <mxCell id="QkRai7MnK0GTXK78Vudh-9" value="IDLC" style="text;html=1;strokeColor=none;fillColor=none;align=center;verticalAlign=middle;whiteSpace=wrap;rounded=0;" vertex="1" parent="1">
          <mxGeometry x="109" y="115" width="120" height="20" as="geometry" />
        </mxCell>
        <mxCell id="QkRai7MnK0GTXK78Vudh-11" value="172.16.0.1/30" style="text;html=1;strokeColor=none;fillColor=none;align=center;verticalAlign=middle;whiteSpace=wrap;rounded=0;" vertex="1" parent="1">
          <mxGeometry x="220" y="202" width="80" height="17" as="geometry" />
        </mxCell>
        <mxCell id="QkRai7MnK0GTXK78Vudh-12" value="172.16.1.1/30" style="text;html=1;strokeColor=none;fillColor=none;align=center;verticalAlign=middle;whiteSpace=wrap;rounded=0;" vertex="1" parent="1">
          <mxGeometry x="524" y="190" width="80" height="17" as="geometry" />
        </mxCell>
        <mxCell id="QkRai7MnK0GTXK78Vudh-13" style="edgeStyle=none;rounded=0;orthogonalLoop=1;jettySize=auto;html=1;exitX=0.5;exitY=1;exitDx=0;exitDy=0;entryX=0.5;entryY=0;entryDx=0;entryDy=0;endArrow=none;endFill=0;" edge="1" parent="1" source="QkRai7MnK0GTXK78Vudh-11" target="QkRai7MnK0GTXK78Vudh-11">
          <mxGeometry relative="1" as="geometry" />
        </mxCell>
        <mxCell id="QkRai7MnK0GTXK78Vudh-16" style="edgeStyle=none;rounded=0;orthogonalLoop=1;jettySize=auto;html=1;exitX=0.5;exitY=0;exitDx=0;exitDy=0;exitPerimeter=0;endArrow=none;endFill=0;" edge="1" parent="1" source="QkRai7MnK0GTXK78Vudh-14">
          <mxGeometry relative="1" as="geometry">
            <mxPoint x="151" y="330" as="sourcePoint" />
            <mxPoint x="168.58904109589048" y="223" as="targetPoint" />
          </mxGeometry>
        </mxCell>
        <mxCell id="QkRai7MnK0GTXK78Vudh-24" style="edgeStyle=none;rounded=0;orthogonalLoop=1;jettySize=auto;html=1;exitX=0.25;exitY=1;exitDx=0;exitDy=0;exitPerimeter=0;endArrow=none;endFill=0;" edge="1" parent="1" source="QkRai7MnK0GTXK78Vudh-14" target="QkRai7MnK0GTXK78Vudh-19">
          <mxGeometry relative="1" as="geometry" />
        </mxCell>
        <mxCell id="QkRai7MnK0GTXK78Vudh-26" style="edgeStyle=none;rounded=0;orthogonalLoop=1;jettySize=auto;html=1;exitX=0.5;exitY=1;exitDx=0;exitDy=0;exitPerimeter=0;endArrow=none;endFill=0;" edge="1" parent="1" source="QkRai7MnK0GTXK78Vudh-14" target="QkRai7MnK0GTXK78Vudh-20">
          <mxGeometry relative="1" as="geometry" />
        </mxCell>
        <mxCell id="QkRai7MnK0GTXK78Vudh-14" value="" style="points=[[0.015,0.015,0],[0.985,0.015,0],[0.985,0.985,0],[0.015,0.985,0],[0.25,0,0],[0.5,0,0],[0.75,0,0],[1,0.25,0],[1,0.5,0],[1,0.75,0],[0.75,1,0],[0.5,1,0],[0.25,1,0],[0,0.75,0],[0,0.5,0],[0,0.25,0]];verticalLabelPosition=bottom;html=1;verticalAlign=top;aspect=fixed;align=center;pointerEvents=1;shape=mxgraph.cisco19.rect;prIcon=l2_switch;fillColor=#FAFAFA;strokeColor=#005073;" vertex="1" parent="1">
          <mxGeometry x="135" y="336" width="65" height="65" as="geometry" />
        </mxCell>
        <mxCell id="QkRai7MnK0GTXK78Vudh-18" style="edgeStyle=none;rounded=0;orthogonalLoop=1;jettySize=auto;html=1;exitX=0.5;exitY=0;exitDx=0;exitDy=0;exitPerimeter=0;endArrow=none;endFill=0;" edge="1" parent="1" source="QkRai7MnK0GTXK78Vudh-17" target="QkRai7MnK0GTXK78Vudh-2">
          <mxGeometry relative="1" as="geometry" />
        </mxCell>
        <mxCell id="QkRai7MnK0GTXK78Vudh-23" style="edgeStyle=none;rounded=0;orthogonalLoop=1;jettySize=auto;html=1;exitX=0.5;exitY=1;exitDx=0;exitDy=0;exitPerimeter=0;endArrow=none;endFill=0;" edge="1" parent="1" source="QkRai7MnK0GTXK78Vudh-17" target="QkRai7MnK0GTXK78Vudh-22">
          <mxGeometry relative="1" as="geometry" />
        </mxCell>
        <mxCell id="QkRai7MnK0GTXK78Vudh-17" value="" style="points=[[0.015,0.015,0],[0.985,0.015,0],[0.985,0.985,0],[0.015,0.985,0],[0.25,0,0],[0.5,0,0],[0.75,0,0],[1,0.25,0],[1,0.5,0],[1,0.75,0],[0.75,1,0],[0.5,1,0],[0.25,1,0],[0,0.75,0],[0,0.5,0],[0,0.25,0]];verticalLabelPosition=bottom;html=1;verticalAlign=top;aspect=fixed;align=center;pointerEvents=1;shape=mxgraph.cisco19.rect;prIcon=l2_switch;fillColor=#FAFAFA;strokeColor=#005073;" vertex="1" parent="1">
          <mxGeometry x="610.5" y="330" width="65" height="65" as="geometry" />
        </mxCell>
        <mxCell id="QkRai7MnK0GTXK78Vudh-19" value="" style="verticalLabelPosition=bottom;aspect=fixed;html=1;verticalAlign=top;strokeColor=none;align=center;outlineConnect=0;shape=mxgraph.citrix.laptop_2;" vertex="1" parent="1">
          <mxGeometry x="20" y="450" width="76" height="56.67" as="geometry" />
        </mxCell>
        <mxCell id="QkRai7MnK0GTXK78Vudh-20" value="" style="verticalLabelPosition=bottom;aspect=fixed;html=1;verticalAlign=top;strokeColor=none;align=center;outlineConnect=0;shape=mxgraph.citrix.laptop_2;" vertex="1" parent="1">
          <mxGeometry x="180" y="470" width="76" height="56.67" as="geometry" />
        </mxCell>
        <mxCell id="QkRai7MnK0GTXK78Vudh-22" value="" style="aspect=fixed;perimeter=ellipsePerimeter;html=1;align=center;shadow=0;dashed=0;spacingTop=3;image;image=img/lib/active_directory/web_server.svg;" vertex="1" parent="1">
          <mxGeometry x="618.5" y="470" width="48" height="60" as="geometry" />
        </mxCell>
        <mxCell id="QkRai7MnK0GTXK78Vudh-25" style="edgeStyle=none;rounded=0;orthogonalLoop=1;jettySize=auto;html=1;entryX=0.25;entryY=1;entryDx=0;entryDy=0;entryPerimeter=0;endArrow=none;endFill=0;" edge="1" parent="1" target="QkRai7MnK0GTXK78Vudh-14">
          <mxGeometry relative="1" as="geometry">
            <mxPoint x="151" y="401" as="sourcePoint" />
          </mxGeometry>
        </mxCell>
        <mxCell id="QkRai7MnK0GTXK78Vudh-27" value="192.168.0.0/24" style="text;html=1;strokeColor=none;fillColor=none;align=center;verticalAlign=middle;whiteSpace=wrap;rounded=0;" vertex="1" parent="1">
          <mxGeometry x="50" y="280" width="100" height="40" as="geometry" />
        </mxCell>
        <mxCell id="QkRai7MnK0GTXK78Vudh-28" value="192.168.1.0/24" style="text;html=1;strokeColor=none;fillColor=none;align=center;verticalAlign=middle;whiteSpace=wrap;rounded=0;" vertex="1" parent="1">
          <mxGeometry x="514" y="270" width="100" height="40" as="geometry" />
        </mxCell>
        <mxCell id="QkRai7MnK0GTXK78Vudh-29" value="&lt;h3 style=&quot;box-sizing: border-box ; margin-top: 0px ; margin-bottom: 0.5rem ; line-height: 1.2 ; font-size: 1.4rem ; padding-top: 6px ; color: rgb(223 , 72 , 0) ; font-family: &amp;#34;rubik&amp;#34; , &amp;#34;roboto&amp;#34; , &amp;#34;pt serif&amp;#34; , &amp;#34;segoe ui&amp;#34; , &amp;#34;helvetica&amp;#34; , sans-serif ; background-color: rgb(255 , 255 , 255)&quot;&gt;Step-1:Define IKEv2 Keyring:&lt;/h3&gt;&lt;div&gt;&lt;div&gt;IDLC#configure terminal&lt;/div&gt;&lt;div&gt;IDLC(config)#crypto ikev2 keyring KR-1&lt;/div&gt;&lt;div&gt;IDLC(config-ikev2-keyring)#peer SITE-2&lt;/div&gt;&lt;div&gt;IDLC(config-ikev2-keyring-peer)#address 172.16.1.1&lt;/div&gt;&lt;div&gt;IDLC(config-ikev2-keyring-peer)#pre-shared-key Bbankdhaka&lt;/div&gt;&lt;div&gt;IDLC(config-ikev2-keyring-peer)#exit&lt;/div&gt;&lt;div&gt;IDLC(config-ikev2-keyring)#exit&lt;/div&gt;&lt;div&gt;IDLC(config)#exit&lt;/div&gt;&lt;div&gt;IDLC#&lt;/div&gt;&lt;/div&gt;" style="text;html=1;strokeColor=none;fillColor=none;align=left;verticalAlign=middle;whiteSpace=wrap;rounded=0;" vertex="1" parent="1">
          <mxGeometry x="-330" y="60" width="370" height="200" as="geometry" />
        </mxCell>
        <mxCell id="QkRai7MnK0GTXK78Vudh-30" value="&lt;h3 style=&quot;box-sizing: border-box ; margin-top: 0px ; margin-bottom: 0.5rem ; line-height: 1.2 ; font-size: 1.4rem ; padding-top: 6px ; color: rgb(223 , 72 , 0) ; font-family: &amp;#34;rubik&amp;#34; , &amp;#34;roboto&amp;#34; , &amp;#34;pt serif&amp;#34; , &amp;#34;segoe ui&amp;#34; , &amp;#34;helvetica&amp;#34; , sans-serif ; background-color: rgb(255 , 255 , 255)&quot;&gt;Step-1:Define IKEv2 Keyring:&lt;/h3&gt;&lt;div&gt;&lt;div&gt;BB#configure terminal&lt;/div&gt;&lt;div&gt;BB(config)#crypto ikev2 keyring KR-1&lt;/div&gt;&lt;div&gt;BB(config-ikev2-keyring)#peer SITE-1&lt;/div&gt;&lt;div&gt;BB(config-ikev2-keyring-peer)#address 172.16.0.1&lt;/div&gt;&lt;div&gt;BB(config-ikev2-keyring-peer)#pre-shared-key Bbbank&lt;/div&gt;&lt;div&gt;BB(config-ikev2-keyring-peer)#exit&lt;/div&gt;&lt;div&gt;BB(config-ikev2-keyring)#exit&lt;/div&gt;&lt;div&gt;BB(config)#exit&lt;/div&gt;&lt;div&gt;BB#&lt;/div&gt;&lt;/div&gt;" style="text;html=1;strokeColor=none;fillColor=none;align=left;verticalAlign=middle;whiteSpace=wrap;rounded=0;" vertex="1" parent="1">
          <mxGeometry x="710" y="84" width="370" height="200" as="geometry" />
        </mxCell>
        <mxCell id="QkRai7MnK0GTXK78Vudh-31" value="&lt;h3 style=&quot;box-sizing: border-box ; margin-top: 0px ; margin-bottom: 0.5rem ; line-height: 1.2 ; font-size: 1.4rem ; padding-top: 6px ; color: rgb(223 , 72 , 0) ; font-family: &amp;#34;rubik&amp;#34; , &amp;#34;roboto&amp;#34; , &amp;#34;pt serif&amp;#34; , &amp;#34;segoe ui&amp;#34; , &amp;#34;helvetica&amp;#34; , sans-serif ; background-color: rgb(255 , 255 , 255)&quot;&gt;Step 2 :Define IKEv2 Proposal:&lt;/h3&gt;&lt;div&gt;&lt;div&gt;IDLC#configure terminal&lt;/div&gt;&lt;div&gt;IDLC(config)#crypto ikev2 proposal PROP-SITE2&lt;/div&gt;&lt;div&gt;IDLC(config-ikev2-proposal)#encryption aes-cbc-256&lt;/div&gt;&lt;div&gt;IDLC(config-ikev2-proposal)#integrity sha512&lt;/div&gt;&lt;div&gt;IDLC(config-ikev2-proposal)#group 24&lt;/div&gt;&lt;div&gt;IDLC(config-ikev2-proposal)#exit&lt;/div&gt;&lt;div&gt;IDLC(config)#exit&lt;/div&gt;&lt;div&gt;IDLC#&lt;/div&gt;&lt;/div&gt;" style="text;html=1;strokeColor=none;fillColor=none;align=left;verticalAlign=middle;whiteSpace=wrap;rounded=0;" vertex="1" parent="1">
          <mxGeometry x="-320" y="260" width="370" height="200" as="geometry" />
        </mxCell>
        <mxCell id="QkRai7MnK0GTXK78Vudh-32" value="&lt;h3 style=&quot;box-sizing: border-box ; margin-top: 0px ; margin-bottom: 0.5rem ; line-height: 1.2 ; font-size: 1.4rem ; padding-top: 6px ; color: rgb(223 , 72 , 0) ; font-family: &amp;#34;rubik&amp;#34; , &amp;#34;roboto&amp;#34; , &amp;#34;pt serif&amp;#34; , &amp;#34;segoe ui&amp;#34; , &amp;#34;helvetica&amp;#34; , sans-serif ; background-color: rgb(255 , 255 , 255)&quot;&gt;Step 2 :Define IKEv2 Proposal:&lt;/h3&gt;&lt;div&gt;&lt;div&gt;BB#configure terminal&lt;/div&gt;&lt;div&gt;BB(config)#crypto ikev2 proposal PROP-SITE1&lt;/div&gt;&lt;div&gt;BB(config-ikev2-proposal)#encryption aes-cbc-256&lt;/div&gt;&lt;div&gt;BB(config-ikev2-proposal)#integrity sha512&lt;/div&gt;&lt;div&gt;BB(config-ikev2-proposal)#group 24&lt;/div&gt;&lt;div&gt;BB(config-ikev2-proposal)#exit&lt;/div&gt;&lt;div&gt;BB(config)#exit&lt;/div&gt;&lt;div&gt;BB#&lt;/div&gt;&lt;/div&gt;" style="text;html=1;strokeColor=none;fillColor=none;align=left;verticalAlign=middle;whiteSpace=wrap;rounded=0;" vertex="1" parent="1">
          <mxGeometry x="703" y="280" width="370" height="200" as="geometry" />
        </mxCell>
        <mxCell id="QkRai7MnK0GTXK78Vudh-33" value="&lt;h3 style=&quot;box-sizing: border-box ; margin-top: 0px ; margin-bottom: 0.5rem ; line-height: 1.2 ; font-size: 1.4rem ; padding-top: 6px ; color: rgb(223 , 72 , 0) ; font-family: &amp;#34;rubik&amp;#34; , &amp;#34;roboto&amp;#34; , &amp;#34;pt serif&amp;#34; , &amp;#34;segoe ui&amp;#34; , &amp;#34;helvetica&amp;#34; , sans-serif ; background-color: rgb(255 , 255 , 255) ; text-align: left&quot;&gt;Step 3:Define IKEv2 Policies:&lt;/h3&gt;&lt;div&gt;&lt;div style=&quot;text-align: left&quot;&gt;IDLC#configure terminal&lt;/div&gt;&lt;div style=&quot;text-align: left&quot;&gt;IDLC(config)#crypto ikev2 policy POL-SITE2&lt;/div&gt;&lt;div style=&quot;text-align: left&quot;&gt;IDLC(config-ikev2-policy)#proposal PROP-SITE2&lt;/div&gt;&lt;div style=&quot;text-align: left&quot;&gt;IDLC(config-ikev2-policy)#exit&lt;/div&gt;&lt;div style=&quot;text-align: left&quot;&gt;IDLC(config)#exit&lt;/div&gt;&lt;div style=&quot;text-align: left&quot;&gt;IDLC#&lt;/div&gt;&lt;/div&gt;" style="text;html=1;strokeColor=none;fillColor=none;align=center;verticalAlign=middle;whiteSpace=wrap;rounded=0;" vertex="1" parent="1">
          <mxGeometry x="-320" y="450" width="300" height="142" as="geometry" />
        </mxCell>
        <mxCell id="QkRai7MnK0GTXK78Vudh-34" value="&lt;h3 style=&quot;box-sizing: border-box ; margin-top: 0px ; margin-bottom: 0.5rem ; line-height: 1.2 ; font-size: 1.4rem ; padding-top: 6px ; color: rgb(223 , 72 , 0) ; font-family: &amp;#34;rubik&amp;#34; , &amp;#34;roboto&amp;#34; , &amp;#34;pt serif&amp;#34; , &amp;#34;segoe ui&amp;#34; , &amp;#34;helvetica&amp;#34; , sans-serif ; background-color: rgb(255 , 255 , 255) ; text-align: left&quot;&gt;Step 3:Define IKEv2 Policies:&lt;/h3&gt;&lt;div&gt;&lt;div style=&quot;text-align: left&quot;&gt;&lt;div&gt;OmniSecuR2#configure terminal&lt;/div&gt;&lt;div&gt;OmniSecuR2(config)#crypto ikev2 policy POL-SITE1&lt;/div&gt;&lt;div&gt;OmniSecuR2(config-ikev2-policy)#proposal PROP-SITE1&lt;/div&gt;&lt;div&gt;OmniSecuR2(config-ikev2-policy)#exit&lt;/div&gt;&lt;div&gt;BB(config)#exit&lt;/div&gt;&lt;div&gt;BB#&lt;/div&gt;&lt;/div&gt;&lt;/div&gt;" style="text;html=1;strokeColor=none;fillColor=none;align=center;verticalAlign=middle;whiteSpace=wrap;rounded=0;" vertex="1" parent="1">
          <mxGeometry x="703" y="470" width="317" height="142" as="geometry" />
        </mxCell>
        <mxCell id="QkRai7MnK0GTXK78Vudh-35" value="&lt;h3 style=&quot;box-sizing: border-box ; margin-top: 0px ; margin-bottom: 0.5rem ; line-height: 1.2 ; font-size: 1.4rem ; padding-top: 6px ; color: rgb(223 , 72 , 0) ; font-family: &amp;#34;rubik&amp;#34; , &amp;#34;roboto&amp;#34; , &amp;#34;pt serif&amp;#34; , &amp;#34;segoe ui&amp;#34; , &amp;#34;helvetica&amp;#34; , sans-serif ; background-color: rgb(255 , 255 , 255) ; text-align: left&quot;&gt;Step 4: Define Crypto ACL to identify IPSec secured traffic&lt;/h3&gt;&lt;div&gt;&lt;div style=&quot;text-align: left&quot;&gt;IDLC#configure terminal&lt;/div&gt;&lt;div style=&quot;text-align: left&quot;&gt;IDLC(config)#ip access-list extended SITE1-SITE2-CACL&lt;/div&gt;&lt;div style=&quot;text-align: left&quot;&gt;IDLC(config-ext-nacl)#permit ip 192.168.0.0 0.0.0.255 192.168.1.0 0.0.0.255&lt;/div&gt;&lt;div style=&quot;text-align: left&quot;&gt;IDLC(config-ext-nacl)#exit&lt;/div&gt;&lt;div style=&quot;text-align: left&quot;&gt;IDLC(config)#exit&lt;/div&gt;&lt;div style=&quot;text-align: left&quot;&gt;IDLC#&lt;/div&gt;&lt;/div&gt;" style="text;html=1;strokeColor=none;fillColor=none;align=center;verticalAlign=middle;whiteSpace=wrap;rounded=0;" vertex="1" parent="1">
          <mxGeometry x="-430" y="600" width="430" height="160" as="geometry" />
        </mxCell>
        <mxCell id="QkRai7MnK0GTXK78Vudh-36" value="&lt;h3 style=&quot;box-sizing: border-box ; margin-top: 0px ; margin-bottom: 0.5rem ; line-height: 1.2 ; font-size: 1.4rem ; padding-top: 6px ; color: rgb(223 , 72 , 0) ; font-family: &amp;#34;rubik&amp;#34; , &amp;#34;roboto&amp;#34; , &amp;#34;pt serif&amp;#34; , &amp;#34;segoe ui&amp;#34; , &amp;#34;helvetica&amp;#34; , sans-serif ; background-color: rgb(255 , 255 , 255) ; text-align: left&quot;&gt;Step 5: Define Transform Sets&lt;/h3&gt;&lt;div&gt;&lt;div style=&quot;text-align: left&quot;&gt;IDLC#configure terminal&lt;/div&gt;&lt;div style=&quot;text-align: left&quot;&gt;IDLC(config)#crypto ipsec transform-set SITE2-TS esp-aes esp-sha512-hmac&lt;/div&gt;&lt;div style=&quot;text-align: left&quot;&gt;IDLC(cfg-crypto-trans)#exit&lt;/div&gt;&lt;div style=&quot;text-align: left&quot;&gt;IDLC(config)#exit&lt;/div&gt;&lt;div style=&quot;text-align: left&quot;&gt;IDLC#&lt;/div&gt;&lt;/div&gt;" style="text;html=1;strokeColor=none;fillColor=none;align=center;verticalAlign=middle;whiteSpace=wrap;rounded=0;" vertex="1" parent="1">
          <mxGeometry x="-435" y="770" width="440" height="120" as="geometry" />
        </mxCell>
        <mxCell id="QkRai7MnK0GTXK78Vudh-37" value="&lt;h3 style=&quot;box-sizing: border-box ; margin-top: 0px ; margin-bottom: 0.5rem ; line-height: 1.2 ; font-size: 1.4rem ; padding-top: 6px ; color: rgb(223 , 72 , 0) ; font-family: &amp;#34;rubik&amp;#34; , &amp;#34;roboto&amp;#34; , &amp;#34;pt serif&amp;#34; , &amp;#34;segoe ui&amp;#34; , &amp;#34;helvetica&amp;#34; , sans-serif ; background-color: rgb(255 , 255 , 255) ; text-align: left&quot;&gt;Step 4: Define Crypto ACL to identify IPSec secured traffic&lt;/h3&gt;&lt;div&gt;&lt;div style=&quot;text-align: left&quot;&gt;IDLC#configure terminal&lt;/div&gt;&lt;div style=&quot;text-align: left&quot;&gt;IDLC(config)#ip access-list extended SITE2-SITE1-CACL&lt;/div&gt;&lt;div style=&quot;text-align: left&quot;&gt;IDLC(config-ext-nacl)#permit ip 192.168.1.0 0.0.0.255 192.168.0.0 0.0.0.255&lt;/div&gt;&lt;div style=&quot;text-align: left&quot;&gt;IDLC(config-ext-nacl)#exit&lt;/div&gt;&lt;div style=&quot;text-align: left&quot;&gt;IDLC(config)#exit&lt;/div&gt;&lt;div style=&quot;text-align: left&quot;&gt;IDLC#&lt;/div&gt;&lt;/div&gt;" style="text;html=1;strokeColor=none;fillColor=none;align=center;verticalAlign=middle;whiteSpace=wrap;rounded=0;" vertex="1" parent="1">
          <mxGeometry x="666.5" y="620" width="430" height="160" as="geometry" />
        </mxCell>
        <mxCell id="QkRai7MnK0GTXK78Vudh-38" value="&lt;h3 style=&quot;box-sizing: border-box ; margin-top: 0px ; margin-bottom: 0.5rem ; line-height: 1.2 ; font-size: 1.4rem ; padding-top: 6px ; color: rgb(223 , 72 , 0) ; font-family: &amp;#34;rubik&amp;#34; , &amp;#34;roboto&amp;#34; , &amp;#34;pt serif&amp;#34; , &amp;#34;segoe ui&amp;#34; , &amp;#34;helvetica&amp;#34; , sans-serif ; background-color: rgb(255 , 255 , 255) ; text-align: left&quot;&gt;Step 5: Define Transform Sets&lt;/h3&gt;&lt;div&gt;&lt;div style=&quot;text-align: left&quot;&gt;&lt;div&gt;BB#configure terminal&lt;/div&gt;&lt;div&gt;BB(config)#crypto ipsec transform-set SITE1-TS esp-aes esp-sha512-hmac&lt;/div&gt;&lt;div&gt;BB(cfg-crypto-trans)#exit&lt;/div&gt;&lt;div&gt;BB(config)#exit&lt;/div&gt;&lt;div&gt;BB#&lt;/div&gt;&lt;/div&gt;&lt;/div&gt;" style="text;html=1;strokeColor=none;fillColor=none;align=center;verticalAlign=middle;whiteSpace=wrap;rounded=0;" vertex="1" parent="1">
          <mxGeometry x="650" y="790" width="440" height="110" as="geometry" />
        </mxCell>
        <mxCell id="QkRai7MnK0GTXK78Vudh-39" value="&lt;h3 style=&quot;box-sizing: border-box ; margin-top: 0px ; margin-bottom: 0.5rem ; line-height: 1.2 ; font-size: 1.4rem ; padding-top: 6px ; color: rgb(223 , 72 , 0) ; font-family: &amp;#34;rubik&amp;#34; , &amp;#34;roboto&amp;#34; , &amp;#34;pt serif&amp;#34; , &amp;#34;segoe ui&amp;#34; , &amp;#34;helvetica&amp;#34; , sans-serif ; background-color: rgb(255 , 255 , 255)&quot;&gt;Step 6: Define IKEv2 Profiles&lt;/h3&gt;&lt;div&gt;&lt;div&gt;IDLC#configure terminal&lt;/div&gt;&lt;div&gt;IDLC(config)#crypto ikev2 profile SITE2-PROFILE&lt;/div&gt;&lt;div&gt;IDLC(config-ikev2-profile)#match identity remote address 172.16.1.1 255.255.255.255&lt;/div&gt;&lt;div&gt;IDLC(config-ikev2-profile)#authentication local pre-share&lt;/div&gt;&lt;div&gt;IDLC(config-ikev2-profile)#authentication remote pre-share&lt;/div&gt;&lt;div&gt;IDLC(config-ikev2-profile)#keyring local KR-1&lt;/div&gt;&lt;div&gt;IDLC(config-ikev2-profile)#exit&lt;/div&gt;&lt;div&gt;IDLC(config)#exit&lt;/div&gt;&lt;div&gt;IDLC#&lt;/div&gt;&lt;/div&gt;&lt;div&gt;&lt;br&gt;&lt;/div&gt;" style="text;html=1;strokeColor=none;fillColor=none;align=left;verticalAlign=middle;whiteSpace=wrap;rounded=0;" vertex="1" parent="1">
          <mxGeometry x="-430" y="900" width="490" height="170" as="geometry" />
        </mxCell>
        <mxCell id="QkRai7MnK0GTXK78Vudh-40" value="&lt;h3 style=&quot;box-sizing: border-box ; margin-top: 0px ; margin-bottom: 0.5rem ; line-height: 1.2 ; font-size: 1.4rem ; padding-top: 6px ; color: rgb(223 , 72 , 0) ; font-family: &amp;#34;rubik&amp;#34; , &amp;#34;roboto&amp;#34; , &amp;#34;pt serif&amp;#34; , &amp;#34;segoe ui&amp;#34; , &amp;#34;helvetica&amp;#34; , sans-serif ; background-color: rgb(255 , 255 , 255)&quot;&gt;Step 6: Define IKEv2 Profiles&lt;/h3&gt;&lt;div&gt;&lt;div&gt;BB#configure terminal&lt;/div&gt;&lt;div&gt;BB(config)#crypto ikev2 profile SITE1-PROFILE&lt;/div&gt;&lt;div&gt;BB(config-ikev2-profile)#match identity remote address 172.16.0.1 255.255.255.255&lt;/div&gt;&lt;div&gt;BB(config-ikev2-profile)#authentication local pre-share&lt;/div&gt;&lt;div&gt;BB(config-ikev2-profile)#authentication remote pre-share&lt;/div&gt;&lt;div&gt;BB(config-ikev2-profile)#keyring local KR-1&lt;/div&gt;&lt;div&gt;BB(config-ikev2-profile)#exit&lt;/div&gt;&lt;div&gt;BB(config)#exit&lt;/div&gt;&lt;div&gt;BB#&lt;/div&gt;&lt;/div&gt;&lt;div&gt;&lt;br&gt;&lt;/div&gt;" style="text;html=1;strokeColor=none;fillColor=none;align=left;verticalAlign=middle;whiteSpace=wrap;rounded=0;" vertex="1" parent="1">
          <mxGeometry x="666.5" y="920" width="490" height="170" as="geometry" />
        </mxCell>
        <mxCell id="QkRai7MnK0GTXK78Vudh-41" value="&lt;h3 style=&quot;box-sizing: border-box ; margin-top: 0px ; margin-bottom: 0.5rem ; font-weight: 600 ; line-height: 1.2 ; font-size: 1.4rem ; padding-top: 6px ; color: rgb(223 , 72 , 0) ; text-align: left ; cursor: auto ; font-family: &amp;#34;rubik&amp;#34; , &amp;#34;roboto&amp;#34; , &amp;#34;pt serif&amp;#34; , &amp;#34;segoe ui&amp;#34; , &amp;#34;helvetica&amp;#34; , sans-serif ; font-style: normal ; letter-spacing: normal ; text-indent: 0px ; text-transform: none ; word-spacing: 0px ; background-color: rgb(255 , 255 , 255)&quot;&gt;Step 7: Define Crypto Maps&lt;/h3&gt;&lt;div&gt;&lt;div&gt;IDLC#configure terminal&lt;/div&gt;&lt;div&gt;IDLC(config)#crypto map CMAP-SITE2 10 ipsec-isakmp&lt;/div&gt;&lt;div&gt;IDLC(config-crypto-map)#set peer 172.16.1.1&lt;/div&gt;&lt;div&gt;IDLC(config-crypto-map)#set pfs group24&lt;/div&gt;&lt;div&gt;IDLC(config-crypto-map)#set security-association lifetime seconds 3600&lt;/div&gt;&lt;div&gt;IDLC(config-crypto-map)#set transform-set SITE2-TS&lt;/div&gt;&lt;div&gt;IDLC(config-crypto-map)#set ikev2-profile SITE2-PROFILE&lt;/div&gt;&lt;div&gt;IDLC(config-crypto-map)#match address SITE1-SITE2-CACL&lt;/div&gt;&lt;div&gt;IDLC(config-crypto-map)#exit&lt;/div&gt;&lt;div&gt;IDLC(config)#exit&lt;/div&gt;&lt;/div&gt;" style="text;whiteSpace=wrap;html=1;" vertex="1" parent="1">
          <mxGeometry x="-440" y="1070" width="440" height="200" as="geometry" />
        </mxCell>
        <mxCell id="QkRai7MnK0GTXK78Vudh-42" value="&lt;h3 style=&quot;box-sizing: border-box ; margin-top: 0px ; margin-bottom: 0.5rem ; font-weight: 600 ; line-height: 1.2 ; font-size: 1.4rem ; padding-top: 6px ; color: rgb(223 , 72 , 0) ; text-align: left ; cursor: auto ; font-family: &amp;#34;rubik&amp;#34; , &amp;#34;roboto&amp;#34; , &amp;#34;pt serif&amp;#34; , &amp;#34;segoe ui&amp;#34; , &amp;#34;helvetica&amp;#34; , sans-serif ; font-style: normal ; letter-spacing: normal ; text-indent: 0px ; text-transform: none ; word-spacing: 0px ; background-color: rgb(255 , 255 , 255)&quot;&gt;Step 7: Define Crypto Maps&lt;/h3&gt;&lt;div&gt;&lt;div&gt;BB#configure terminal&lt;/div&gt;&lt;div&gt;BB(config)#crypto map CMAP-SITE1 10 ipsec-isakmp&lt;/div&gt;&lt;div&gt;BB(config-crypto-map)#set peer 172.16.0.1&lt;/div&gt;&lt;div&gt;BB(config-crypto-map)#set pfs group24&lt;/div&gt;&lt;div&gt;BB(config-crypto-map)#set security-association lifetime seconds 3600&lt;/div&gt;&lt;div&gt;BB(config-crypto-map)#set transform-set SITE1-TS&lt;/div&gt;&lt;div&gt;BB(config-crypto-map)#set ikev2-profile SITE1-PROFILE&lt;/div&gt;&lt;div&gt;BB(config-crypto-map)#match address SITE2-SITE1-CACL&lt;/div&gt;&lt;div&gt;BB(config-crypto-map)#exit&lt;/div&gt;&lt;div&gt;BB(config)#exit&lt;/div&gt;&lt;div&gt;BB#&lt;/div&gt;&lt;/div&gt;" style="text;whiteSpace=wrap;html=1;" vertex="1" parent="1">
          <mxGeometry x="666.5" y="1100" width="440" height="200" as="geometry" />
        </mxCell>
        <mxCell id="QkRai7MnK0GTXK78Vudh-43" value="&lt;h3 style=&quot;box-sizing: border-box ; margin-top: 0px ; margin-bottom: 0.5rem ; line-height: 1.2 ; font-size: 1.4rem ; padding-top: 6px ; color: rgb(223 , 72 , 0) ; font-family: &amp;#34;rubik&amp;#34; , &amp;#34;roboto&amp;#34; , &amp;#34;pt serif&amp;#34; , &amp;#34;segoe ui&amp;#34; , &amp;#34;helvetica&amp;#34; , sans-serif ; background-color: rgb(255 , 255 , 255)&quot;&gt;Step 9: Activate Crypto Maps by applying the Crypto Map to Router&#39;s Interface&lt;/h3&gt;&lt;div&gt;&lt;div&gt;To apply Crypto Map to the WAN Interface on IDLC, use following commands.&lt;/div&gt;&lt;div&gt;IDLC#configure terminal&lt;/div&gt;&lt;div&gt;IDLC(config)#interface gi0/0&lt;/div&gt;&lt;div&gt;IDLC(config-if)#crypto map CMAP-SITE2&lt;/div&gt;&lt;div&gt;IDLC(config-if)#exit&lt;/div&gt;&lt;div&gt;IDLC(config)#exit&lt;/div&gt;&lt;div&gt;IDLC#&lt;/div&gt;&lt;div&gt;• To apply Crypto Map to the WAN Interface on BB, use following commands.&lt;/div&gt;&lt;div&gt;BB#configure terminal&lt;/div&gt;&lt;div&gt;BB(config)#interface gi0/0&lt;/div&gt;&lt;div&gt;BB(config-if)#crypto map CMAP-SITE1&lt;/div&gt;&lt;div&gt;BB(config-if)#exit&lt;/div&gt;&lt;div&gt;BB(config)#exit&lt;/div&gt;&lt;div&gt;BB#&lt;/div&gt;&lt;/div&gt;" style="text;html=1;strokeColor=none;fillColor=none;align=left;verticalAlign=middle;whiteSpace=wrap;rounded=0;" vertex="1" parent="1">
          <mxGeometry x="40.5" y="550" width="570" height="300" as="geometry" />
        </mxCell>
      </root>
    </mxGraphModel>
  </diagram>
</mxfile>
